<svg xmlns="http://www.w3.org/2000/svg" width="24" height="24" viewBox="0 0 24 24"><path d="M10.4 3.2Q10.8 3.3 11.3 3.3Q11.7 3.2 12.2 3.2Q12.7 3.1 13.3 3.3Q13.8 3.4 14.3 3.7Q14.8 3.9 15.3 4.2Q15.8 4.4 16.2 4.8Q16.6 5.3 16.9 5.7Q17.2 6.1 17.5 6.6Q17.8 7 18 7.4Q18.2 7.9 18.3 8.3Q18.4 8.8 18.6 9.3Q18.8 9.8 18.8 10.4Q18.9 10.9 18.8 11.5Q18.6 12 18.5 12.5Q18.4 13.1 18.3 13.5Q18.1 14 17.9 14.4Q17.7 14.9 17.5 15.3Q17.2 15.7 17 16.1Q16.7 16.5 16.3 16.9Q15.8 17.2 15.3 17.4Q14.8 17.7 14.4 18Q13.9 18.3 13.3 18.4Q12.8 18.5 12.3 18.6Q11.8 18.7 11.3 18.8Q10.7 19 10.2 19Q9.6 19 9.1 18.8Q8.6 18.6 8.2 18.5Q7.7 18.3 7.3 18Q6.8 17.8 6.4 17.4Q6 17 5.7 16.6Q5.3 16.3 4.9 15.9Q4.6 15.5 4.3 15.1Q4 14.7 3.8 14.3Q3.5 13.9 3.2 13.5Q2.9 13.1 2.7 12.6Q2.5 12.1 2.5 11.5Q2.5 11 2.6 10.4Q2.6 9.9 2.8 9.3Q3 8.8 3.3 8.4Q3.6 7.9 3.8 7.5Q4.1 7 4.3 6.5Q4.6 6.1 4.9 5.7Q5.3 5.3 5.6 4.9Q5.9 4.5 6.3 4.1Q6.7 3.7 7.2 3.5Q7.8 3.3 8.3 3.2Q8.9 3.1 9.4 3.1Q9.9 3.1 10.4 3.2ZM10.4 5.2Q9.9 5.1 9.5 5.1Q9.1 5 8.8 5.1Q8.5 5.2 8.2 5.5Q8 5.8 7.7 6Q7.4 6.3 7 6.6Q6.7 6.8 6.5 7.2Q6.2 7.5 5.9 7.8Q5.6 8.1 5.4 8.3Q5.1 8.6 5 9Q5 9.3 4.9 9.7Q4.8 10.1 4.8 10.5Q4.7 10.9 4.8 11.2Q4.9 11.6 5 11.9Q5.1 12.3 5.2 12.7Q5.3 13.1 5.5 13.5Q5.7 13.8 5.9 14.1Q6.2 14.4 6.4 14.6Q6.6 14.9 6.8 15.1Q7.1 15.4 7.5 15.5Q7.9 15.6 8.3 15.9Q8.6 16.1 9 16.3Q9.4 16.6 9.7 16.7Q10.1 16.8 10.5 16.9Q10.9 16.9 11.3 17Q11.6 17 12 16.8Q12.4 16.7 12.7 16.5Q13 16.3 13.3 16.1Q13.7 15.9 14 15.7Q14.3 15.4 14.6 15.1Q14.9 14.9 15.2 14.7Q15.6 14.5 15.8 14.2Q16 14 16.2 13.6Q16.3 13.2 16.5 12.8Q16.7 12.4 16.7 12Q16.8 11.6 16.7 11.2Q16.6 10.9 16.5 10.6Q16.4 10.3 16.4 9.9Q16.3 9.5 16.2 9.1Q16 8.8 16 8.4Q15.9 8 15.8 7.5Q15.7 7.1 15.5 6.8Q15.3 6.5 14.9 6.3Q14.6 6.1 14.2 5.9Q13.8 5.7 13.4 5.6Q13 5.6 12.7 5.6Q12.3 5.6 12 5.5Q11.6 5.4 11.2 5.4Q10.8 5.3 10.4 5.2ZM15.1 16.8Q14.8 16.3 15.1 15.9Q15.3 15.4 15.7 15.2Q16.2 14.9 16.8 15Q17.3 15.1 17.6 15.5Q17.9 15.9 18.1 16.2Q18.3 16.6 18.6 17Q18.9 17.3 19.2 17.7Q19.5 18 19.8 18.3Q20.1 18.6 20.3 19Q20.6 19.3 21 19.6Q21.3 19.9 21.4 20.2Q21.6 20.6 21.4 20.9Q21.2 21.2 20.9 21.4Q20.6 21.6 20.2 21.5Q19.8 21.4 19.5 21.1Q19.1 20.9 18.8 20.6Q18.4 20.3 18.1 20Q17.8 19.7 17.5 19.3Q17.3 19 17 18.7Q16.7 18.3 16.3 18.1Q16 17.8 15.6 17.5Q15.3 17.2 15.1 16.8Z" fill="#102D32"/></svg>
